<?xml version="1.0" encoding="UTF-8"?>
<svg width="676px" height="677px" viewBox="0 0 676 677" version="1.1" xmlns="http://www.w3.org/2000/svg" xmlns:xlink="http://www.w3.org/1999/xlink">
    <!-- Generator: Sketch 64 (93537) - https://sketch.com -->
    <title>avatar</title>
    <desc>Created with Sketch.</desc>
    <g id="Page-1" stroke="none" stroke-width="1" fill="none" fill-rule="evenodd">
        <g id="avatar" fill-rule="nonzero">
            <path d="M676.000293,338 C676.06038,383.754882 666.798718,429.042436 648.78,471.1 L647.66,473.68 C584.935371,616.375727 432.888891,697.804872 279.35,670.93 C277.32,670.57 275.293333,670.196667 273.27,669.81 C252.363215,665.757112 231.890551,659.719786 212.13,651.78 C208.92,650.49 205.733333,649.153333 202.57,647.77 C200.41,646.83 198.25,645.86 196.11,644.86 C76.5846618,589.463495 0.0701679179,469.738659 0,338 C0,151.33 151.33,5.68434189e-14 338,5.68434189e-14 C524.67,5.68434189e-14 676.000293,151.33 676.000293,338 Z" id="Path" fill="#1E34CA"></path>
            <path d="M279.35,670.93 C277.32,670.57 275.293333,670.196667 273.27,669.81 C271.95,631.5 267.42,552.87 251.96995,470.52 C243.52,425.45 231.79,379.25 215.52,337.95 C209.945994,323.659704 203.579444,309.691353 196.45,296.11 C180.01,265.06 160.07,238.92 135.89,221.21 L139.45,216.35 C159.56,231.09 177.633333,251.783333 193.67,278.43 C198.48,286.41 203.100017,294.923333 207.53005,303.97 C212.28005,313.65 216.81005,323.926667 221.12005,334.8 C223.87005,341.72 226.526717,348.88 229.09005,356.28 C240.25005,388.41 249.736717,425.07 257.55005,466.26 C259.28009,475.36 260.926757,484.683333 262.49005,494.23 C274.6,568.2 278.25,636.59 279.35,670.93 Z" id="Path" fill="#000000" opacity="0.2"></path>
            <path d="M202.57,647.77 C200.41,646.83 198.25,645.86 196.11,644.86 C194.02,622.16 190.18,594 183.16,567.27 C180.085405,555.264835 176.138242,543.500217 171.35,532.07 C163.34,513.32 152.97,497.38 139.56,487.55 L143.12,482.7 C157.16,492.98 167.99,509.23 176.36,528.24 C185.79,549.66 192.08,574.59 196.27,598.41 C199.38,616.1 201.34,633.19 202.57,647.77 Z" id="Path" fill="#000000" opacity="0.2"></path>
            <circle id="Oval" fill="#000000" opacity="0.2" cx="102.26174" cy="190.98167" r="30.08857"></circle>
            <circle id="Oval" fill="#000000" opacity="0.2" cx="111.9514" cy="449.99083" r="30.08857"></circle>
            <path d="M221.71449,241.52139 C215.33403,277.51871 229.41905,310.11364 229.41905,310.11364 C229.41905,310.11364 253.84884,284.34539 260.2293,248.34807 C266.60976,212.35075 252.52473,179.75582 252.52473,179.75582 C252.52473,179.75582 228.09494,205.52407 221.71449,241.52139 Z" id="Path" fill="#000000" opacity="0.2"></path>
            <path d="M121.71766,326.97122 C156.0526,339.52622 190.55442,331.46922 190.55442,331.46922 C190.55442,331.46922 169.3883,303.05643 135.05336,290.50138 C100.71842,277.94633 66.21661,286.00338 66.21661,286.00338 C66.21661,286.00338 87.38272,314.41617 121.71766,326.97122 Z" id="Path" fill="#000000" opacity="0.2"></path>
            <path d="M115.89534,556.333 C139.96134,565.13308 164.17848,559.3924 164.17848,559.3924 C164.17848,559.3924 149.37687,539.384 125.31086,530.5839 C101.24485,521.7838 77.02772,527.5245 77.02772,527.5245 C77.02772,527.5245 91.82933,547.53292 115.89534,556.333 Z" id="Path" fill="#000000" opacity="0.2"></path>
            <circle id="Oval" fill="#3D3232" cx="337.30608" cy="281.0788" r="131.77014"></circle>
            <path d="M285.83337,381.96531 C285.83337,381.96531 302.30464,460.20383 302.30464,468.43946 C302.30464,476.67509 380.54316,513.73546 380.54316,513.73546 L450.546,501.382 L475.253,427.26129 C475.253,427.26129 434.07483,365.49404 434.07483,340.78714 L285.83337,381.96531 Z" id="Path" fill="#3D3232"></path>
            <path d="M648.78,471.1 L647.66,473.68 C584.935371,616.375727 432.888891,697.804872 279.35,670.93 C277.32,670.57 275.293333,670.196667 273.27,669.81 C252.363215,665.757112 231.890551,659.719786 212.13,651.78 C208.92,650.49 205.733333,649.153333 202.57,647.77 C200.41,646.83 198.25,645.86 196.11,644.86 C176.712825,635.873593 158.213078,625.065053 140.86,612.58 L125.24,567.27 L134.02,560.57005 L152.08,546.78005 L171.35,532.07005 L176.36,528.24005 L251.97,470.52005 L257.55,466.26005 L296.85,436.26005 L296.86,436.25005 C296.86,436.25005 339.36,505.50005 401.13,484.91005 C462.9,464.32005 461.55,405.28005 461.55,405.28005 L648.78,471.1 Z" id="Path" fill="#010101"></path>
            <path d="M223.03538,174.916 C223.03538,174.916 264.87191,84.27019 345.05859,105.18845 C425.24527,126.10671 470.56817,157.48411 474.05459,188.86151 C477.54101,220.23891 472.3114,267.30499 472.3114,267.30499 C472.3114,267.30499 463.5954,202.80699 407.8134,216.75252 C352.0314,230.69805 264.87193,220.2389 264.87193,220.2389 L250.9264,345.74849 C250.9264,345.74849 235.2377,323.08704 217.80582,337.03255 C200.37394,350.97806 167.25335,202.807 223.03538,174.916 Z" id="Path" fill="#010101"></path>
            <path d="M212.13,651.78 C208.92,650.49 205.733333,649.153333 202.57,647.77 C200.41,646.83 198.25,645.86 196.11,644.86 C164.029129,629.983832 134.474706,610.177408 108.52,586.16 C117.71,573.64 125.24,567.27 125.24,567.27 L187.01,567.27 L196.27,598.41 L212.13,651.78 Z" id="Path" fill="#010101"></path>
            <path d="M594.67,464.32 L647.66,473.68 C633.479233,505.985138 614.327251,535.870462 590.9,562.25 L594.67,464.32 Z" id="Path" fill="#010101"></path>
        </g>
    </g>
</svg>